<svg id="visual" viewBox="0 0 900 600" width="900" height="600" xmlns="http://www.w3.org/2000/svg" xmlns:xlink="http://www.w3.org/1999/xlink" version="1.1"><path d="M0 522L11.5 527.8C23 533.7 46 545.3 69 547.2C92 549 115 541 138.2 541.2C161.3 541.3 184.7 549.7 207.8 553.2C231 556.7 254 555.3 277 549.8C300 544.3 323 534.7 346 531.5C369 528.3 392 531.7 415.2 532.2C438.3 532.7 461.7 530.3 484.8 533.3C508 536.3 531 544.7 554 543.3C577 542 600 531 623 528.7C646 526.3 669 532.7 692.2 532.5C715.3 532.3 738.7 525.7 761.8 523.3C785 521 808 523 831 530.5C854 538 877 551 888.5 557.5L900 564L900 601L888.5 601C877 601 854 601 831 601C808 601 785 601 761.8 601C738.7 601 715.3 601 692.2 601C669 601 646 601 623 601C600 601 577 601 554 601C531 601 508 601 484.8 601C461.7 601 438.3 601 415.2 601C392 601 369 601 346 601C323 601 300 601 277 601C254 601 231 601 207.8 601C184.7 601 161.3 601 138.2 601C115 601 92 601 69 601C46 601 23 601 11.5 601L0 601Z" fill="#242582" stroke-linecap="round" stroke-linejoin="miter"></path></svg>