<svg id="visual" viewBox="0 0 960 540" width="960" height="540" xmlns="http://www.w3.org/2000/svg" xmlns:xlink="http://www.w3.org/1999/xlink" version="1.1"><path d="M0 404L10.7 394C21.3 384 42.7 364 64 373.3C85.3 382.7 106.7 421.3 128 421.2C149.3 421 170.7 382 192 377C213.3 372 234.7 401 256 418.2C277.3 435.3 298.7 440.7 320 441.7C341.3 442.7 362.7 439.3 384 430C405.3 420.7 426.7 405.3 448 389.2C469.3 373 490.7 356 512 366C533.3 376 554.7 413 576 424.3C597.3 435.7 618.7 421.3 640 416.5C661.3 411.7 682.7 416.3 704 412.8C725.3 409.3 746.7 397.7 768 387.5C789.3 377.3 810.7 368.7 832 371.7C853.3 374.7 874.7 389.3 896 395.7C917.3 402 938.7 400 949.3 399L960 398L960 541L949.3 541C938.7 541 917.3 541 896 541C874.7 541 853.3 541 832 541C810.7 541 789.3 541 768 541C746.7 541 725.3 541 704 541C682.7 541 661.3 541 640 541C618.7 541 597.3 541 576 541C554.7 541 533.3 541 512 541C490.7 541 469.3 541 448 541C426.7 541 405.3 541 384 541C362.7 541 341.3 541 320 541C298.7 541 277.3 541 256 541C234.7 541 213.3 541 192 541C170.7 541 149.3 541 128 541C106.7 541 85.3 541 64 541C42.7 541 21.3 541 10.7 541L0 541Z" fill="#edc7b7" stroke-linecap="round" stroke-linejoin="miter"></path></svg>